Simulation
nRows=27
nColumns=15
endheader
time  TH_x TH_y TH_z SC_y  SC_z  SC_x  AC_y  AC_z  AC_x  GH_y  GH_z  GH_yy  EL_x  PS_y
1.3499999999999996  0.000000  0.000000  0.000000  -32.54498202834236  13.893994401956496  17.51038579481844  66.39208026445196  13.889232318532953  -0.42344296564247896  -21.28811937968451  56.632797331669  -8.823589295145284  21.347284963728953  120.000000
1.3769999999999996  0.000000  0.000000  0.000000  -32.72601879178449  13.89219338058644  17.787538795145405  66.5264679326306  13.784523509073368  -0.4299071685011745  -21.329118563550693  56.391116962176774  -8.976451670100419  21.441130084738646  120.000000
1.4039999999999997  0.000000  0.000000  0.000000  -32.80809086511492  13.851273005500953  18.00496854883967  66.60936122584823  13.635030508429871  -0.5167442282616702  -21.32528481901536  56.112438444710975  -9.120270164134975  21.517778416373393  120.000000
1.4309999999999996  0.000000  0.000000  0.000000  -32.793685974795345  13.774813877922002  18.15623353453321  66.64020132953246  13.449665743531764  -0.6764382839409964  -21.278087252475995  55.79857933505557  -9.25414931643045  21.57541961401224  120.000000
1.4579999999999995  0.000000  0.000000  0.000000  -32.68805710258288  13.66659894363221  18.236368958010964  66.61907705532316  13.23728201528286  -0.9006936873031278  -21.188352597538493  55.45140570954283  -9.379295825552791  21.613016094820573  120.000000
1.4849999999999997  0.000000  0.000000  0.000000  -32.49902075500924  13.53057468861562  18.24199059163744  66.5466554395329  13.006462462540318  -1.180598051373975  -21.056138324961974  55.07280332519827  -9.499060828416258  21.6302752435155  120.000000
1.5119999999999996  0.000000  0.000000  0.000000  -32.23599095804793  13.370732987553477  18.171086830345708  66.4240262313429  12.76520198870673  -1.5069751427693006  -20.880718246721372  54.664671459035425  -9.618725430704952  21.62744755092174  120.000000
1.5389999999999995  0.000000  0.000000  0.000000  -31.90851742636492  13.190912402999778  18.022649613003495  66.25241448063596  12.520541199338085  -1.8707829793635524  -20.660597464563015  54.228884573196304  -9.74499407864299  21.605011356850426  120.000000
1.5659999999999996  0.000000  0.000000  0.000000  -31.52470940075761  12.994530847810877  17.796287521104283  66.03292449281854  12.27824832302392  -2.263498518620535  -20.39368487204087  53.76721990335579  -9.885372206678436  21.563368294095746  120.000000
1.5929999999999995  0.000000  0.000000  0.000000  -31.09003229478804  12.784325193824946  17.491953430925328  65.76642912051463  12.04263032809537  -2.677474014011586  -20.07762003964375  53.28127284843708  -10.047508633502074  21.502611767698884  120.000000
1.6199999999999997  0.000000  0.000000  0.000000  -30.606927159710366  12.562125061784213  17.109930770849548  65.45358474026828  11.816501357763821  -3.1060957376335567  -19.71021174188182  52.772377306418264  -10.238414803799483  21.422520869126558  120.000000
1.6469999999999996  0.000000  0.000000  0.000000  -30.075427716152575  12.328692522662779  16.651050984419932  65.09516169617437  11.601329309393591  -3.5439575227143503  -19.289939605311407  52.2414555828815  -10.463734817432364  21.322791369379  120.000000
1.6739999999999995  0.000000  0.000000  0.000000  -29.494568542420673  12.083601194211179  16.117088122274048  64.69236297331298  11.397436702590943  -3.9868545782190314  -18.8163597673743  51.688926283434625  -10.726824618712204  21.203483641275298  120.000000
1.7009999999999996  0.000000  0.000000  0.000000  -28.86410840857179  11.82517384304222  15.511112670406256  64.24732327024935  11.204165808414974  -4.431923755543467  -18.29042807428798  51.11469818376641  -11.02801779642253  21.065515958541045  120.000000
1.7279999999999995  0.000000  0.000000  0.000000  -28.186094984846314  11.550492583249433  14.83771085450045  63.76332650686643  11.019997732289253  -4.877551183648907  -17.71453126193159  50.51831873668703  -11.363875760459154  20.911088615591407  120.000000
1.7549999999999994  0.000000  0.000000  0.000000  -27.465696448183596  11.255523944885049  14.102695102221972  63.24499789323436  10.84289324467232  -5.323208205824201  -17.09236777328254  49.89915931932663  -11.727109110021857  20.74380779356163  120.000000
1.7819999999999996  0.000000  0.000000  0.000000  -26.711012565224628  10.935418005050883  13.313041776421457  62.69797529777732  10.670300079881315  -5.7691251522247144  -16.428560149719896  49.256640274699144  -12.106951287464497  20.56836169417152  120.000000
1.8089999999999995  0.000000  0.000000  0.000000  -25.931946218874902  10.585063860841558  12.47717848746005  62.12851272785972  10.498616717847339  -6.216276185165235  -15.728393424945372  48.590421617398654  -12.490314733429326  20.389818062781785  120.000000
1.8359999999999994  0.000000  0.000000  0.000000  -25.138841479730782  10.199799907866074  11.604846957815495  61.542703382048394  10.32296484609062  -6.665987547790639  -14.99741744129731  47.90058010974708  -12.862937837122889  20.21276419448267  120.000000
1.8629999999999995  0.000000  0.000000  0.000000  -24.341211274615517  9.776071423532795  10.706598117618524  60.94587179327014  10.137203516392706  -7.11961973911464  -14.241169640494823  47.187716284598736  -13.210597435559517  20.04053787104969  120.000000
1.8899999999999995  0.000000  0.000000  0.000000  -23.546906195419094  9.311902918149302  9.793432183545338  60.34188053792996  9.93403318598955  -7.578304255735983  -13.46480564776895  46.45284122421045  -13.519873420549906  19.874804187252945  120.000000
1.9169999999999996  0.000000  0.000000  0.000000  -22.761919997008935  8.807038999423948  8.876426932303392  59.73304881444405  9.705335458376695  -8.04283979650893  -12.673032673698106  45.697193416189165  -13.77855209852791  19.71562410559361  120.000000
1.9439999999999995  0.000000  0.000000  0.000000  -21.990832855119862  8.262778058043398  7.966588175865401  59.120426961220524  9.442852288238695  -8.513620344494697  -11.869976996589413  44.92193180966993  -13.97572985834274  19.56193660844794  120.000000
1.9709999999999994  0.000000  0.000000  0.000000  -21.237523047677055  7.6816505672750965  7.074888914278151  58.504650871261376  9.139110076768231  -8.990586216004676  -11.059308013272698  44.127825044997536  -14.101665678885496  19.412318777405147  120.000000
1.9979999999999996  0.000000  0.000000  0.000000  -20.50585547986599  7.067115914116443  6.21245083227745  57.8869904187472  8.788464716730806  -9.473225881206426  -10.244153461408947  43.31488697607908  -14.147946500471125  19.26562453147123  120.000000
2.0249999999999995  0.000000  0.000000  0.000000  -19.80022388185973  6.4232940666698095  5.390758587742628  57.270415438204196  8.387873675333406  -9.960557265944027  -9.42728500799328  42.481943499713495  -14.107454930520527  19.121417165375775  120.000000
2.0519999999999996  0.000000  0.000000  0.000000  -19.12593407786086  5.754981281724049  4.621383357448853  56.6599774746552  7.937234210039951  -10.451183979825682  -8.610856020691973  41.62615570232663  -13.974667684505091  18.98025460053737  120.000000
